<svg width="48" height="38" viewBox="0 0 48 38" fill="none" xmlns="http://www.w3.org/2000/svg">
<path d="M48 4.51998V34.5104L32.9856 19.496L48 4.51998ZM24.192 25.064L47.424 1.85118C47.2056 1.58282 46.9306 1.36616 46.6185 1.21677C46.3064 1.06738 45.9652 0.988975 45.6192 0.987183H2.7648C2.41884 0.988975 2.07756 1.06738 1.7655 1.21677C1.45345 1.36616 1.17836 1.58282 0.960003 1.85118L24.192 25.064ZM31.3728 21.1088L24.96 27.56C24.7447 27.7711 24.4551 27.8893 24.1536 27.8893C23.8521 27.8893 23.5625 27.7711 23.3472 27.56L17.0112 21.128L1.44 36.6992C1.82358 36.9856 2.28627 37.1465 2.7648 37.16H45.6192C46.0977 37.1465 46.5604 36.9856 46.944 36.6992L31.3728 21.1088ZM0.384003 4.51998V34.5104L15.36 19.496L0.384003 4.51998Z" fill="url(#paint0_linear_19_49)"/>
<defs>
<linearGradient id="paint0_linear_19_49" x1="1.5" y1="36.5" x2="48.5" y2="1" gradientUnits="userSpaceOnUse">
<stop stop-color="#5123E5"/>
<stop offset="0.504663" stop-color="#6D22E5" stop-opacity="0.533333"/>
<stop offset="1" stop-color="#8C20E5" stop-opacity="0"/>
</linearGradient>
</defs>
</svg>
