<svg width="31" height="22" viewBox="0 0 31 22" fill="none" xmlns="http://www.w3.org/2000/svg">
<g clip-path="url(#clip0_11_2)">
<rect width="32" height="22" transform="translate(-1)" fill="url(#paint0_linear_11_2)"/>
<path d="M30.7349 2.36958C30.448 1.67401 29.937 1.07488 29.27 0.651667C28.6029 0.228457 27.8112 0.00118277 26.9999 0L2.99995 0C2.17489 0.00201395 1.3707 0.237849 0.697568 0.67519C0.0244385 1.11253 -0.48469 1.72998 -0.760051 2.44292C-0.92119 2.8339 -1.00254 3.24871 -1.00005 3.66667V18.3333C-0.999434 19.0632 -0.761186 19.7764 -0.31581 20.3814C0.129566 20.9864 0.761801 21.4559 1.49995 21.7296C1.97578 21.909 2.48545 22.0009 2.99995 22H26.9999C27.4889 22.0026 27.9734 21.9153 28.4249 21.7433C29.307 21.4465 30.0434 20.869 30.4999 20.1163C30.8293 19.5706 31.0014 18.9569 31 18.3333V3.66667C30.9995 3.22304 30.9097 2.7833 30.7349 2.36958V2.36958ZM1.66495 3.66667C1.66627 3.34248 1.80734 3.03192 2.05742 2.80268C2.30749 2.57344 2.64629 2.44412 2.99995 2.44292H26.9999C27.3536 2.44412 27.6924 2.57344 27.9425 2.80268C28.1926 3.03192 28.3336 3.34248 28.3349 3.66667V3.90042L17.7049 11.2338L15.4999 12.7967L14.9999 13.1404L14.4999 12.7829L12.2699 11.2567L1.66495 3.94625V3.66667ZM1.66495 18.3333V7.00333L10.0549 12.7829L1.69495 18.5396C1.67644 18.4721 1.66638 18.4029 1.66495 18.3333V18.3333ZM4.66495 19.5571L12.2799 14.3138L14.1999 15.6429C14.4299 15.8035 14.7109 15.8905 14.9999 15.8905C15.289 15.8905 15.57 15.8035 15.7999 15.6429L17.7049 14.3229L25.2649 19.5571H4.66495ZM28.3349 18.3333C28.3349 18.4202 28.3215 18.5066 28.2949 18.59L19.9199 12.7829L28.3349 6.95292V18.3333Z" fill="#35353D"/>
</g>
<defs>
<linearGradient id="paint0_linear_11_2" x1="3" y1="20" x2="28.5" y2="3.5" gradientUnits="userSpaceOnUse">
<stop offset="0.0424825" stop-color="#1245C6"/>
<stop offset="0.606046" stop-color="#8B43E8" stop-opacity="0.348958"/>
<stop offset="1" stop-color="#9909CB"/>
</linearGradient>
<clipPath id="clip0_11_2">
<rect width="32" height="22" fill="white" transform="translate(-1)"/>
</clipPath>
</defs>
</svg>
