<svg width="32" height="32" viewBox="0 0 32 32" fill="none" xmlns="http://www.w3.org/2000/svg">
<mask id="mask0_9_3" style="mask-type:alpha" maskUnits="userSpaceOnUse" x="0" y="0" width="32" height="32">
<path fill-rule="evenodd" clip-rule="evenodd" d="M22.6912 31.7813C23.195 31.9775 23.77 31.965 24.2787 31.72L30.8675 28.55C31.56 28.2175 32 27.5163 32 26.7475V5.25251C32 4.48376 31.56 3.78376 30.8675 3.45001L24.2787 0.280006C23.6112 -0.0412436 22.83 0.0375064 22.2437 0.463756C22.16 0.525006 22.08 0.592506 22.005 0.667506L9.39375 12.1738L3.9 8.00251C3.38875 7.61376 2.67375 7.64626 2.19875 8.07876L0.436246 9.68126C-0.145004 10.21 -0.145004 11.1238 0.434996 11.6525L5.19875 16L0.434996 20.3463C-0.145004 20.8763 -0.145004 21.79 0.436246 22.3188L2.19875 23.9213C2.67375 24.3538 3.38875 24.385 3.9 23.9975L9.39375 19.8275L22.0062 31.3338C22.2062 31.5325 22.44 31.6838 22.6912 31.7813ZM24.005 8.73626L14.435 16L24.005 23.265V8.73626V8.73626Z" fill="white"/>
</mask>
<g mask="url(#mask0_9_3)">
<path d="M30.8675 3.45499L24.2738 0.279995C23.5113 -0.0875051 22.5988 0.0674949 22 0.666245L0.415007 20.3462C-0.164993 20.8762 -0.164993 21.79 0.416257 22.3187L2.17876 23.9212C2.65376 24.3537 3.37001 24.385 3.88126 23.9975L29.875 4.27874C30.7475 3.61749 32 4.23874 32 5.33374V5.25749C32 4.48874 31.56 3.78749 30.8675 3.45499Z" fill="#0065A9"/>
<path d="M30.8675 28.545L24.2738 31.72C23.5113 32.0875 22.5988 31.9325 22 31.3337L0.415007 11.6537C-0.164993 11.125 -0.164993 10.21 0.416257 9.68249L2.17876 8.07999C2.65376 7.64749 3.37001 7.61624 3.88126 8.00374L29.875 27.7212C30.7475 28.3825 32 27.7612 32 26.6662V26.7425C32 27.5112 31.56 28.2125 30.8675 28.545Z" fill="#007ACC"/>
<path d="M24.275 31.72C23.5113 32.0875 22.6 31.9325 22 31.3325C22.7375 32.07 24 31.5475 24 30.5037V1.495C24 0.45125 22.7375 -0.0712498 22 0.66625C22.5988 0.0675002 23.5113 -0.0874998 24.275 0.27875L30.8675 3.44875C31.56 3.7825 32.0013 4.4825 32.0013 5.25125V26.7475C32.0013 27.5162 31.5613 28.2162 30.8675 28.55L24.275 31.72Z" fill="#1F9CF0"/>
<g opacity="0.25">
<path fill-rule="evenodd" clip-rule="evenodd" d="M22.6725 31.7813C23.1763 31.9775 23.7513 31.965 24.26 31.72L30.8488 28.55C31.5413 28.2175 31.9813 27.5163 31.9813 26.7475V5.25251C31.9813 4.48376 31.5413 3.78376 30.8488 3.45001L24.26 0.280006C23.5925 -0.0412436 22.8113 0.0375064 22.225 0.463756C22.1413 0.525006 22.0613 0.592506 21.9863 0.667506L9.37376 12.1738L3.88001 8.00251C3.36876 7.61376 2.65376 7.64626 2.17876 8.07876L0.416257 9.68126C-0.164993 10.21 -0.164993 11.1238 0.415007 11.6538L5.18001 16L0.415007 20.3463C-0.164993 20.8763 -0.164993 21.79 0.416257 22.3188L2.17876 23.9213C2.65376 24.3538 3.36876 24.385 3.88001 23.9975L9.37376 19.8275L21.9863 31.3338C22.1863 31.5325 22.42 31.6838 22.6725 31.7813ZM23.985 8.73626L14.415 16L23.985 23.265V8.73626Z" fill="url(#paint0_linear_9_3)"/>
</g>
</g>
<defs>
<linearGradient id="paint0_linear_9_3" x1="15.9805" y1="0.0825064" x2="15.9805" y2="31.9175" gradientUnits="userSpaceOnUse">
<stop stop-color="white"/>
<stop offset="1" stop-color="white" stop-opacity="0"/>
</linearGradient>
</defs>
</svg>
