<svg width="814" height="642" viewBox="0 0 814 642" fill="none" xmlns="http://www.w3.org/2000/svg">
<g id="Group">
<path id="Vector" d="M552.659 0.314626C530.336 3.46286 499.926 21.7567 481.097 43.454C475.921 49.4101 467.056 61.7478 461.751 70.3416L459.486 74.0004L457.351 69.746C452.433 59.7057 441.434 50.6013 430.37 47.4531C423.188 45.411 412.317 45.2408 400.606 47.0276C372.978 51.282 354.473 61.918 333.832 85.317C320.374 100.463 309.569 120.373 307.045 134.668C306.657 136.965 306.204 139.433 306.075 140.028C305.881 140.794 304.457 139.688 302.128 136.965C290.611 124.032 276.829 115.353 263.759 112.885C251.271 110.503 228.301 113.566 211.026 119.863C155.769 140.028 118.5 181.211 107.695 234.135C106.465 240.091 106.271 243.41 106.271 257.704L106.206 274.296L99.089 275.743C87.2483 278.04 72.496 284.252 61.3023 291.569C49.9793 299.142 33.7387 315.479 24.0333 329.263C7.79274 352.321 -1.33042 380.485 0.157757 402.693C1.51652 423.455 8.43977 439.026 19.6334 446.769C25.5214 450.768 30.2448 452.214 39.7561 452.98C44.0913 453.32 47.6499 453.661 47.6499 453.746C47.6499 453.831 46.0324 457.149 43.9619 461.063C37.6209 473.571 31.927 491.184 30.2448 503.862C28.0449 520.029 30.5036 540.875 36.521 556.702C43.9619 576.442 55.479 588.95 73.9194 597.373C84.6602 602.308 90.807 603.415 105.559 603.33C142.052 603.244 172.204 592.353 201.967 568.784C210.184 562.232 214.325 558.318 220.537 551.001C223.255 547.853 225.584 545.215 225.778 545.215C225.907 545.215 226.231 548.959 226.425 553.553C226.878 561.637 228.172 572.698 229.531 579.59C235.936 612.179 258.324 636.258 286.923 641.364C292.681 642.385 311.445 642.129 318.757 640.938C353.696 634.982 384.171 618.39 409.923 591.162C420.082 580.356 431.534 563.594 436.905 551.511C437.81 549.469 438.716 547.767 438.846 547.767C438.975 547.767 439.493 548.959 440.075 550.32C441.887 554.915 452.433 572.698 456.639 578.314C462.851 586.567 470.162 593.204 479.544 599.245C500.573 612.774 516.296 615.242 552.012 610.732C587.146 606.223 615.55 593.544 634.767 573.804C649.455 558.659 658.643 541.216 662.46 520.88C665.76 503.096 663.107 470.678 656.831 451.874C655.925 449.321 655.213 447.024 655.213 446.939C655.213 446.769 658.513 446.428 662.525 446.088C672.23 445.322 685.559 442.684 694.359 439.706C710.082 434.516 719.334 427.879 728.975 415.116C738.486 402.523 741.916 391.972 741.916 375.465C741.916 353.172 736.028 331.645 725.352 314.968L722.569 310.629L731.046 308.757C758.221 302.545 773.556 292.59 790.767 269.957C800.084 257.704 804.678 249.621 808.884 237.794C813.542 224.86 814.06 221.287 813.995 202.738C813.93 179.509 811.536 163.172 806.037 148.877C800.537 134.498 789.926 121.139 780.285 116.374C775.885 114.247 765.727 113.311 759.58 114.502C757.315 114.927 755.439 115.098 755.309 114.927C755.18 114.842 755.439 112.29 755.892 109.397C757.056 102.335 756.992 94.3363 755.827 81.9135C754.727 70.3416 753.692 64.3004 751.298 56.6425C745.863 39.1145 734.475 23.7988 720.434 15.2049C711.246 9.50407 705.553 7.9725 694.359 7.88741C686.724 7.88741 683.165 8.31285 677.536 9.84442C667.96 12.4821 658.319 16.8216 649.714 22.3523C638.326 29.6698 633.15 34.6049 623.379 47.6233C618.462 54.0899 614.321 59.3653 614.127 59.3653C613.933 59.3653 613.803 58.6846 613.803 57.8338C613.803 55.0259 609.533 42.6882 606.492 36.647C602.48 28.7338 595.104 18.3532 590.575 14.3541C578.864 3.8883 564.629 -1.38712 552.659 0.314626Z" fill="url(#paint0_linear_6_3)"/>
</g>
<defs>
<linearGradient id="paint0_linear_6_3" x1="142" y1="481" x2="725" y2="36.5" gradientUnits="userSpaceOnUse">
<stop stop-color="#5123E5"/>
<stop offset="1" stop-color="#8919ED" stop-opacity="0"/>
</linearGradient>
</defs>
</svg>
