<svg width="866" height="545" viewBox="0 0 866 545" fill="none" xmlns="http://www.w3.org/2000/svg">
<g id="coder 1" clip-path="url(#clip0_0_1)">
<g id="svgg">
<path id="path0" fill-rule="evenodd" clip-rule="evenodd" d="M434.253 37.2702C433.912 37.3636 431.962 37.7473 429.919 38.1251C415.491 40.7889 405.631 46.229 389.544 60.4011C381.312 67.6526 376.676 72.0189 375.095 74.0108C374.259 75.067 370.367 79.4173 367.808 82.1624C367.245 82.765 364.757 85.8474 362.278 89.0103C359.798 92.1752 357.555 95.0089 357.293 95.3112C356.293 96.4572 353.481 100.378 351.2 103.804C349.896 105.764 348.672 107.488 348.482 107.639C348.289 107.79 347.189 109.516 346.036 111.476C343.821 115.234 339.362 122.679 337.663 125.451C335.797 128.496 330.618 138.558 327.647 144.91C326.027 148.377 324.351 151.953 323.928 152.857C323.503 153.762 322.653 155.734 322.036 157.243C321.422 158.75 320.726 160.23 320.492 160.532C320.256 160.832 319.579 162.559 318.986 164.369C317.881 167.749 316.414 171.385 315.543 172.906C315.27 173.381 314.434 175.725 313.684 178.115C311.625 184.673 310.44 187.873 309.807 188.598C308.567 190.016 309.023 194.981 310.603 197.271C311.44 198.48 312.788 200.702 313.601 202.214C314.415 203.723 315.251 205.083 315.458 205.234C315.667 205.384 316.795 206.867 317.963 208.53C324.859 218.327 335.436 229.041 349.352 240.323C357.42 246.866 357.528 246.75 343.104 247.156C336.554 247.343 329.244 247.853 326.862 248.29C324.48 248.729 320.302 249.482 317.578 249.966C309.343 251.431 305.368 252.327 301.796 253.524C299.924 254.152 297.546 254.889 296.512 255.161C285.081 258.173 269.888 268.365 262.309 278.107C257.679 284.059 251.523 292.684 249.209 296.465C248.657 297.37 247.574 298.887 246.807 299.838C246.041 300.787 245.413 301.74 245.412 301.955C245.412 302.172 244.474 303.735 243.328 305.433C242.184 307.13 240.041 310.491 238.568 312.903C237.094 315.314 235.201 318.396 234.358 319.753C231.567 324.243 216.472 350.738 215.763 352.389C215.381 353.279 214.408 355.117 213.602 356.474C211.383 360.201 207.286 367.88 205.707 371.273C204.935 372.931 203.22 376.289 201.898 378.733C200.574 381.179 199.492 383.348 199.491 383.555C199.491 383.762 198.489 385.82 197.264 388.129C196.04 390.437 194.398 393.818 193.613 395.641C192.83 397.464 191.488 400.31 190.629 401.968C189.768 403.626 188.641 406.094 188.12 407.451C187.597 408.807 186.308 411.698 185.252 413.872C184.199 416.049 182.61 419.811 181.725 422.235C180.837 424.66 179.863 426.779 179.556 426.945C179.251 427.113 178.999 427.732 178.998 428.322C178.997 428.912 178.728 429.821 178.401 430.346C178.074 430.868 176.802 434.01 175.576 437.327C174.349 440.645 173.11 443.852 172.824 444.455C172.535 445.058 171.812 447.155 171.217 449.114C168.666 457.504 168.242 458.808 167.472 460.628C167.025 461.685 166.467 463.411 166.232 464.468C165.999 465.523 165.415 468.115 164.936 470.225C164.46 472.336 163.784 475.668 163.44 477.63C163.093 479.589 162.531 481.908 162.195 482.783C161.856 483.657 161.574 488.412 161.566 493.347C161.548 503.674 162.361 505.913 167.642 510.061L170.341 512.18L168.679 512.737C167.626 513.09 155.013 513.274 134.202 513.238C104.532 513.188 101.42 513.266 101.758 514.052C101.965 514.529 102.133 515.024 102.132 515.148C102.131 516.154 775.901 516.437 776.509 515.432C777.157 514.36 776.805 514.346 743.175 514.14C724.479 514.026 708.995 513.764 708.764 513.561C708.536 513.355 709.837 511.867 711.659 510.253C717.097 505.432 719.131 493.74 716.246 483.861C715.739 482.122 715.325 480.155 715.328 479.493C715.329 478.828 714.91 476.555 714.397 474.442C713.882 472.33 713.038 468.872 712.523 466.758C712.01 464.646 710.923 460.941 710.108 458.527C709.293 456.111 708.197 452.852 707.672 451.286C707.146 449.72 706.716 447.978 706.717 447.412C706.718 446.849 706.311 445.908 705.813 445.321C705.315 444.734 704.9 443.83 704.89 443.313C704.88 442.794 704.482 441.559 704.006 440.568C703.533 439.577 702.394 436.666 701.48 434.099C700.566 431.532 699.443 428.693 698.987 427.786C698.53 426.881 697.594 424.657 696.905 422.845C695.477 419.083 694.358 416.43 693.199 414.061C692.756 413.156 692.183 411.92 691.927 411.316C690.018 406.814 689.241 405.05 688.483 403.493C688.007 402.511 687.225 400.906 686.747 399.924C686.269 398.942 685.401 397.029 684.816 395.669C684.231 394.31 682.68 391.165 681.368 388.68C680.057 386.195 678.984 383.915 678.985 383.612C678.986 383.123 674.28 373.848 672.78 371.382C672.461 370.856 672.201 370.135 672.202 369.777C672.202 369.421 671.832 368.738 671.381 368.26C670.928 367.784 669.926 366.033 669.157 364.373C667.392 360.57 649.647 328.523 647.871 325.935C647.147 324.878 646.027 322.901 645.383 321.543C644.739 320.184 643.888 318.701 643.493 318.248C643.097 317.796 641.437 315.201 639.808 312.481C638.179 309.763 636.194 306.618 635.399 305.49C634.606 304.364 633.955 303.322 633.955 303.177C633.955 303.029 632.427 300.668 630.561 297.929C628.694 295.188 627.166 292.859 627.166 292.754C627.166 292.649 626.095 291.112 624.784 289.341C623.475 287.569 620.828 283.97 618.903 281.342C610.42 269.765 598.666 261.309 583.918 256.178C582.048 255.527 579.962 254.779 579.282 254.517C576.986 253.628 572.5 252.423 569.077 251.777C567.206 251.423 563.866 250.789 561.654 250.37C552.383 248.603 549.925 248.244 544.335 247.838C541.103 247.605 535.328 247.382 531.499 247.345C523.018 247.264 522.498 246.577 527.795 242.432C545.453 228.619 560.311 212.556 567.836 199.149C570.905 193.682 570.965 192.655 568.578 186.21C567.567 183.478 566.199 179.638 565.537 177.677C564.025 173.191 559.246 161.101 557.836 158.188C557.25 156.98 556.348 154.881 555.832 153.521C554.757 150.69 553.777 148.607 551.257 143.788C550.273 141.907 549.467 140.239 549.467 140.08C549.469 139.21 538.629 119.553 535.87 115.425C535.241 114.483 534.094 112.602 533.323 111.242C532.552 109.884 530.918 107.412 529.693 105.751C528.471 104.089 527.272 102.359 527.031 101.906C525.306 98.6656 509.412 78.5671 507.267 76.912C506.877 76.6086 505.626 75.3017 504.489 74.0084C502.177 71.372 501.694 70.9075 492.911 62.8572C486.011 56.5324 483.374 54.3342 478.782 51.0712C477.085 49.8652 475.141 48.4307 474.457 47.8796C473.145 46.8236 464.453 42.0037 463.859 42.0027C463.667 42.0024 462.635 41.6711 461.561 41.2651C453.336 38.1588 438.806 36.0345 434.253 37.2702ZM455.722 157.19C458.433 157.494 463.437 157.981 466.84 158.272C476.437 159.093 489.675 160.957 494.675 162.19C501.181 163.795 503.781 164.422 507.354 165.246C515.27 167.075 514.906 166.594 515.939 176.607C517.946 196.08 507.959 215.313 487.003 232.335L482.175 236.255L482.108 245.708L482.038 255.162L478.376 257.412C475.073 259.44 473.094 260.463 464.805 264.429C462.72 265.425 456.912 267.523 450.256 269.685C444.152 271.667 431.28 271.597 428.942 269.57C428.62 269.29 427.769 269.06 427.052 269.059C426.332 269.058 425.207 268.692 424.547 268.248C423.886 267.805 422.895 267.433 422.34 267.423C420.773 267.393 407.726 261.248 401.133 257.434C394.264 253.462 394.288 253.504 394.765 246.025C395.404 236 395.148 235.315 388.425 229.113C369.278 211.448 361.587 194.784 363.735 175.613C364.83 165.835 363.657 167.125 373.715 164.643C388.235 161.06 398.202 159.419 413.014 158.176C416.415 157.89 421.01 157.45 423.223 157.197C428.959 156.54 449.884 156.535 455.722 157.19ZM564.935 382.027C565.966 383.249 565.673 407.438 564.395 426.737C564.045 432.017 563.462 446.209 563.1 458.279C562.736 470.347 562.223 487.381 561.956 496.133C561.69 504.887 561.258 512.352 560.996 512.727C560.585 513.317 320.65 513.455 320.504 512.866C320.231 511.774 319.233 489.673 318.777 474.6C318.452 463.887 317.927 446.729 317.612 436.47C316.126 388.337 316.125 382.698 317.59 381.403L318.914 380.233L441.462 380.581C563.193 380.926 564.017 380.935 564.935 382.027Z" fill="black"/>
<path id="path1" fill-rule="evenodd" clip-rule="evenodd" d="M0.461649 268.889L-0.000469486 543.185L432.161 543.913L864.323 544.641L864.785 270.345L865.248 -3.9518L433.086 -4.67988L0.923767 -5.40796L0.461649 268.889ZM453.515 37.318C454.488 37.7699 455.901 38.144 456.651 38.1472C457.398 38.1503 458.792 38.4286 459.742 38.7655C462.739 39.8301 467.023 41.6325 467.345 41.9645C467.515 42.1392 468.767 42.7793 470.127 43.3851C471.488 43.9909 473.295 45.0535 474.145 45.7485C474.995 46.4416 476.592 47.5134 477.697 48.1303C478.803 48.7472 479.707 49.4768 479.706 49.7546C479.706 50.0305 479.965 50.2589 480.285 50.2595C481.724 50.2619 503.803 69.6906 503.801 70.9532C503.8 71.0873 504.435 71.7417 505.211 72.4079C505.988 73.074 507.578 74.7321 508.747 76.0906C509.913 77.451 511.223 78.7618 511.657 79.0039C512.093 79.2461 512.446 79.7812 512.446 80.1931C512.445 80.6051 512.68 81.0251 512.967 81.1271C513.567 81.3389 518.935 87.5978 519.301 88.5142C519.436 88.8497 520.176 89.8377 520.948 90.7108C523.036 93.0748 527.88 99.806 527.879 100.343C527.878 100.599 528.131 100.81 528.438 100.811C528.744 100.811 529.296 101.491 529.662 102.321C530.366 103.914 531.631 105.842 532.275 106.303C532.991 106.819 536.52 113.045 536.519 113.794C536.518 114.204 536.768 114.539 537.073 114.54C537.38 114.54 538.197 115.511 538.893 116.697C539.587 117.884 540.438 119.305 540.785 119.855C541.13 120.406 541.976 122.015 542.665 123.432C543.354 124.847 544.199 126.159 544.538 126.347C544.879 126.534 545.159 127.136 545.158 127.686C545.157 128.234 545.573 128.991 546.082 129.367C546.592 129.744 547.007 130.674 547.006 131.433C547.004 132.193 547.364 133.089 547.804 133.425C548.574 134.012 550.804 138.25 552.749 142.819C554.314 146.497 554.381 146.635 554.93 147.486C556.668 150.17 557.49 151.907 557.488 152.892C557.487 153.507 557.744 154.149 558.057 154.322C558.372 154.495 558.822 155.429 559.06 156.397C559.511 158.223 559.719 158.687 561.407 161.57C561.965 162.523 562.42 163.806 562.419 164.421C562.418 165.034 562.679 165.682 562.998 165.859C563.32 166.034 563.776 167.337 564.013 168.754C564.251 170.172 564.821 171.665 565.28 172.074C565.74 172.483 566.117 173.369 566.116 174.041C566.114 174.714 566.351 175.498 566.642 175.786C567.393 176.528 569.19 181.76 569.214 183.272C569.225 183.969 569.632 185.158 570.117 185.914C570.602 186.667 571.017 187.904 571.037 188.657C571.06 189.412 571.486 190.509 571.984 191.096C573.15 192.468 573.139 194.393 571.957 195.439C571.446 195.89 571.026 196.618 571.025 197.055C571.024 197.491 570.606 198.156 570.096 198.53C569.585 198.905 569.165 199.561 569.164 199.991C569.162 201.042 566.878 204.93 565.571 206.106C564.989 206.628 563.899 208.161 563.147 209.51C562.397 210.86 561.273 212.456 560.648 213.056C560.022 213.657 558.901 215.029 558.151 216.108C557.404 217.186 556.157 218.678 555.382 219.428C554.607 220.176 552.862 222.004 551.507 223.493C550.15 224.981 548.128 226.995 547.014 227.968C545.897 228.942 544.986 229.854 544.986 229.996C544.985 230.391 536.667 237.609 531.891 241.359C526.407 245.666 526.269 245.509 535.832 245.82C540.341 245.965 546.812 246.501 550.214 247.009C553.617 247.519 558.439 248.172 560.927 248.464C563.416 248.756 565.974 249.243 566.608 249.545C567.243 249.846 568.561 250.096 569.54 250.097C570.519 250.099 571.858 250.464 572.518 250.909C573.179 251.353 574.321 251.725 575.06 251.735C575.797 251.746 577.19 252.103 578.151 252.528C579.114 252.951 581.433 253.733 583.304 254.265C585.174 254.795 587.575 255.627 588.64 256.111C589.707 256.594 592.209 257.713 594.204 258.598C596.199 259.483 597.924 260.411 598.038 260.662C598.15 260.913 598.498 261.119 598.809 261.12C600.587 261.123 614.208 271.735 614.206 273.115C614.206 273.421 614.432 273.753 614.706 273.855C615.548 274.163 620.278 279.744 620.697 280.927C620.914 281.539 621.768 282.686 622.594 283.479C623.418 284.269 624.716 286.053 625.477 287.444C626.239 288.832 627.205 290.215 627.624 290.517C628.042 290.82 629.172 292.426 630.135 294.087C631.098 295.748 633.044 298.715 634.461 300.677C635.877 302.642 637.036 304.556 637.04 304.933C637.041 305.311 637.322 305.619 637.663 305.62C638.002 305.621 638.28 306.085 638.279 306.652C638.279 307.219 638.694 307.99 639.206 308.366C639.715 308.743 640.131 309.37 640.13 309.761C640.13 310.152 640.358 310.552 640.637 310.654C640.915 310.755 641.982 312.32 643.006 314.132C646.274 319.912 647.649 322.093 648.216 322.406C648.521 322.574 648.77 323.321 648.769 324.067C648.768 324.812 649.183 325.566 649.693 325.741C650.203 325.914 650.621 326.511 650.62 327.064C650.619 327.618 650.897 328.224 651.238 328.41C651.579 328.599 652.424 329.911 653.117 331.326C653.811 332.743 654.922 334.766 655.586 335.823C656.252 336.88 657.786 339.599 658.999 341.864C660.211 344.129 661.571 346.599 662.021 347.354C662.469 348.11 663.557 349.938 664.438 351.418C665.32 352.897 666.041 354.535 666.04 355.056C666.039 355.579 666.455 356.313 666.964 356.69C667.474 357.066 667.891 357.837 667.891 358.404C667.89 358.969 668.113 359.433 668.388 359.434C668.662 359.434 669.367 360.485 669.953 361.768C670.54 363.053 671.426 364.802 671.923 365.657C672.419 366.512 672.823 367.53 672.823 367.923C672.822 368.314 673.24 368.941 673.75 369.318C674.259 369.694 674.675 370.436 674.674 370.965C674.673 371.496 675.091 372.236 675.6 372.612C676.109 372.989 676.534 373.823 676.543 374.465C676.553 375.107 676.971 376.111 677.469 376.699C677.967 377.286 678.374 378.191 678.373 378.712C678.372 379.231 678.581 379.741 678.836 379.841C679.544 380.122 681.457 383.566 681.477 384.599C681.487 385.103 681.902 385.995 682.403 386.582C682.901 387.167 683.307 388.187 683.306 388.848C683.305 389.507 683.721 390.355 684.23 390.731C684.742 391.107 685.157 391.878 685.156 392.445C685.155 393.013 685.375 393.477 685.645 393.477C685.915 393.477 686.658 394.898 687.295 396.633C687.934 398.37 688.79 400.409 689.2 401.162C689.967 402.576 691.121 404.879 692.818 408.384C693.352 409.486 693.788 410.876 693.787 411.472C693.786 412.068 694.202 412.864 694.711 413.24C695.22 413.618 695.636 414.393 695.635 414.962C695.634 415.533 695.881 416.43 696.183 416.954C697.924 419.98 699.951 424.898 700.416 427.221C700.596 428.118 701.119 429.184 701.579 429.595C702.04 430.004 702.415 430.765 702.414 431.286C702.413 431.809 702.65 432.471 702.941 432.757C703.634 433.442 705.494 438.693 705.498 439.969C705.497 440.517 705.915 441.671 706.421 442.536C706.927 443.401 707.351 444.513 707.361 445.007C707.371 445.5 707.787 446.383 708.285 446.971C708.785 447.556 709.192 448.576 709.191 449.237C709.189 449.896 709.604 451.322 710.112 452.407C710.62 453.491 711.045 455.189 711.054 456.178C711.064 457.168 711.478 458.458 711.977 459.045C712.477 459.633 712.884 460.685 712.882 461.386C712.881 462.088 713.124 463.09 713.423 463.614C714.36 465.255 715.373 469.342 715.939 473.75C716.235 476.084 716.698 478.307 716.965 478.689C718.209 480.475 719.081 499.115 718.114 503.249C717.501 505.877 715.936 508.637 713.765 510.923L711.942 512.84L745.16 513.038L778.376 513.235L778.373 515.132C778.37 516.445 778.002 517.201 777.174 517.594C775.77 518.257 102.274 517.264 101.097 516.597C100.123 516.047 99.5246 513.621 100.153 512.775C100.543 512.251 108.201 512.074 133.608 512.007L166.56 511.921L164.645 510.013C162.035 507.411 161.044 505.486 159.986 500.957C158.65 495.235 158.761 492.98 160.988 480.915C161.35 478.956 161.9 475.682 162.208 473.64C162.516 471.601 163.056 469.134 163.408 468.157C163.76 467.182 164.21 465.459 164.406 464.327C164.605 463.197 165.032 462.27 165.358 462.271C165.682 462.271 165.95 461.456 165.951 460.457C165.953 459.459 166.364 458.163 166.864 457.579C167.364 456.994 167.785 455.812 167.797 454.954C167.819 453.283 169.404 447.741 170.253 446.352C170.537 445.89 170.967 444.718 171.209 443.747C171.45 442.778 171.905 441.984 172.218 441.985C172.532 441.985 172.788 441.361 172.789 440.596C172.79 439.832 173.212 438.323 173.724 437.239C174.236 436.158 174.655 434.829 174.656 434.286C174.657 433.744 175.126 432.479 175.694 431.476C177.386 428.495 177.584 428.051 178.043 426.211C178.284 425.243 178.737 424.313 179.053 424.141C179.367 423.969 179.627 423.288 179.63 422.627C179.634 421.966 180.009 420.792 180.467 420.018C180.924 419.245 181.486 417.949 181.716 417.141C181.949 416.331 182.41 415.669 182.743 415.669C183.078 415.67 183.36 415.117 183.371 414.436C183.383 413.758 183.802 412.724 184.305 412.139C184.805 411.553 185.215 410.502 185.216 409.801C185.217 409.102 185.478 408.1 185.797 407.576C187.552 404.685 190.184 399.302 190.185 398.601C190.186 398.155 190.596 397.31 191.096 396.725C191.596 396.141 192.017 395.136 192.029 394.494C192.041 393.852 192.468 393.022 192.978 392.647C193.489 392.272 193.909 391.622 193.91 391.202C193.911 390.782 194.176 390.011 194.501 389.486C194.826 388.964 195.545 387.549 196.098 386.343C196.654 385.137 197.478 383.41 197.931 382.506C198.386 381.601 198.922 380.491 199.123 380.039C199.325 379.587 199.728 378.846 200.019 378.395C201.384 376.268 202.075 374.896 202.989 372.496C203.534 371.068 204.251 369.602 204.585 369.238C205.665 368.06 207.484 364.624 207.891 362.994C208.11 362.119 208.544 361.403 208.857 361.403C209.17 361.404 209.428 361.123 209.428 360.78C209.429 360.437 210.546 358.097 211.911 355.584C213.277 353.069 214.394 350.79 214.394 350.518C214.394 350.248 214.815 349.72 215.325 349.346C215.836 348.971 216.254 348.192 216.255 347.617C216.256 347.04 216.676 346.428 217.186 346.254C217.697 346.083 218.115 345.551 218.115 345.072C218.117 344.376 220.948 339.032 224.272 333.45C224.54 332.999 225.288 331.642 225.932 330.436C226.578 329.232 227.254 328.121 227.436 327.97C227.618 327.819 228.864 325.723 230.203 323.312C231.542 320.9 232.823 318.804 233.05 318.653C233.277 318.504 233.659 317.824 233.898 317.146C234.139 316.469 234.595 315.914 234.913 315.914C235.229 315.915 235.491 315.53 235.491 315.061C235.493 314.16 238.156 309.641 239.511 308.241C239.948 307.789 240.499 306.865 240.733 306.185C240.968 305.507 241.418 304.952 241.736 304.953C242.054 304.954 242.314 304.475 242.315 303.889C242.316 303.304 242.613 302.663 242.974 302.466C243.335 302.27 243.894 301.577 244.213 300.928C244.817 299.699 246.122 297.754 246.658 297.282C246.924 297.047 248.129 295.066 250.682 290.665C251.018 290.084 251.645 289.609 252.075 289.61C252.505 289.611 252.858 289.201 252.859 288.699C252.861 287.761 256.496 282.354 257.343 282.03C257.605 281.931 257.819 281.613 257.82 281.324C257.826 277.917 279.563 258.936 283.452 258.942C283.926 258.943 284.659 258.573 285.083 258.121C285.507 257.67 286.377 257.302 287.016 257.303C287.656 257.304 288.177 257.105 288.177 256.86C288.178 256.36 291.949 254.824 294.53 254.271C295.47 254.069 296.392 253.686 296.578 253.418C296.766 253.15 297.547 252.931 298.312 252.932C299.077 252.933 300.244 252.573 300.906 252.132C301.568 251.688 302.703 251.321 303.429 251.312C304.157 251.304 305.549 250.931 306.525 250.48C307.5 250.032 308.771 249.664 309.35 249.663C309.929 249.662 312.006 249.294 313.967 248.845C315.928 248.394 318.709 248.029 320.151 248.032C321.59 248.034 322.941 247.789 323.151 247.489C323.361 247.186 324.701 246.932 326.127 246.921C327.553 246.91 329.974 246.649 331.504 246.344C333.037 246.036 338.327 245.623 343.263 245.426L352.233 245.068L349.218 242.595C340.747 235.643 331.045 226.714 326.597 221.775C322.083 216.762 316.718 210.31 316.719 209.896C316.719 209.718 315.689 208.162 314.43 206.44C311.241 202.075 309.929 199.88 309.931 198.918C309.931 198.464 309.707 198.092 309.433 198.091C307.942 198.089 306.121 191.418 307.416 190.711C307.726 190.541 308.17 189.419 308.401 188.214C308.633 187.012 309.077 185.888 309.389 185.72C309.698 185.55 309.957 184.623 309.961 183.659C309.964 182.697 310.384 181.203 310.893 180.34C311.402 179.475 311.822 178.228 311.823 177.566C311.824 176.903 312.234 175.884 312.734 175.299C313.236 174.713 313.664 173.741 313.686 173.137C313.709 172.534 314.136 171.563 314.636 170.977C315.139 170.392 315.549 169.402 315.55 168.778C315.551 168.151 316.133 166.286 316.842 164.632C317.554 162.977 318.405 160.823 318.737 159.843C319.067 158.863 319.604 158.061 319.928 158.061C320.252 158.062 320.519 157.507 320.522 156.828C320.526 156.15 320.947 154.888 321.456 154.025C321.966 153.162 322.382 152.193 322.383 151.875C322.383 151.358 325.278 145.593 326.771 143.132C327.089 142.608 327.35 141.878 327.351 141.508C327.351 141.137 328.446 138.853 329.786 136.429C331.125 134.006 332.855 130.667 333.631 129.01C334.41 127.352 335.221 125.872 335.433 125.721C335.647 125.57 336.008 125.078 336.236 124.624C336.466 124.173 336.904 123.434 337.209 122.98C337.515 122.529 338.494 120.802 339.387 119.144C341.067 116.02 343.565 111.959 344.106 111.475C344.277 111.324 344.96 110.212 345.627 109.006C346.293 107.8 347.17 106.443 347.579 105.992C347.989 105.54 349.195 103.735 350.261 101.982C352.097 98.9658 352.642 98.2482 354.495 96.4235C354.921 96.0027 355.27 95.417 355.271 95.1181C355.272 94.1333 371.429 75.0449 376.039 70.5828C377.06 69.5939 379.989 66.7402 382.543 64.2404C386.88 60 394.358 53.7244 399.204 50.257C400.36 49.4312 402.173 48.0797 403.233 47.2538C404.291 46.4298 405.647 45.612 406.242 45.4387C406.838 45.2673 407.325 44.8945 407.326 44.6128C407.326 44.3312 407.711 44.1019 408.18 44.1027C408.649 44.1035 409.38 43.7349 409.804 43.2835C410.228 42.8301 411.098 42.4618 411.737 42.4629C412.375 42.464 412.898 42.2349 412.899 41.9533C412.899 41.6716 413.526 41.2703 414.294 41.059C415.059 40.8495 415.825 40.5117 415.996 40.3108C416.468 39.754 421.568 38.2356 424.351 37.8207C425.713 37.618 427.114 37.2448 427.462 36.9906C429.238 35.6945 450.598 35.9623 453.515 37.318Z" fill="#FBFBFB"/>
<path id="path2" fill-rule="evenodd" clip-rule="evenodd" d="M421.674 158.564C410.892 159.228 404.904 159.89 393.208 161.704C384.833 163.005 382.252 163.479 380.211 164.095C375.382 165.548 372.078 166.384 371.177 166.381C365.976 166.356 364.907 168.861 364.854 181.178C364.813 191.218 365.187 193.675 367.493 198.463C367.784 199.067 368.91 201.538 369.995 203.954C371.08 206.37 372.344 208.737 372.804 209.213C373.261 209.691 373.638 210.369 373.637 210.724C373.637 211.076 373.883 211.366 374.183 211.367C374.483 211.367 374.904 211.801 375.119 212.328C375.67 213.688 376.636 215.019 379.81 218.783C383.278 222.895 382.685 222.302 389.848 228.823L395.869 234.305L395.853 243.603L395.838 252.903L400.213 255.614C407.457 260.102 412.035 262.251 425.82 267.641C433.816 270.768 446.029 270.779 452.83 267.664C453.734 267.25 455.001 266.911 455.647 266.912C456.291 266.913 457.084 266.701 457.407 266.443C457.731 266.183 460.086 265.143 462.64 264.128C465.194 263.115 468.437 261.605 469.85 260.772C471.262 259.941 472.841 259.262 473.359 259.262C473.876 259.263 474.393 259.019 474.508 258.718C474.621 258.42 476.109 257.363 477.811 256.371C480.262 254.946 480.881 254.288 480.783 253.219C479.555 239.791 479.995 236.424 483.305 233.895C498.057 222.632 508.726 208.783 513.58 194.595C514.513 191.863 514.827 172.459 513.98 169.754C513.471 168.126 512.257 167.528 507.041 166.326C505.341 165.934 502.419 165.201 500.548 164.696C496.583 163.628 493.656 163.056 486.013 161.851C462.196 158.102 444.125 157.178 421.674 158.564Z" fill="#D9AE97"/>
<path id="path3" fill-rule="evenodd" clip-rule="evenodd" d="M436.904 36.3282C438.701 36.4424 441.487 36.4451 443.09 36.3348C444.696 36.2264 443.225 36.1319 439.823 36.1281C436.42 36.1243 435.106 36.2141 436.904 36.3282ZM427.447 37.0039C427.237 37.3044 426.454 37.579 425.709 37.6122C424.728 37.6565 424.641 37.7426 425.393 37.9201C425.965 38.0552 427.636 37.7936 429.106 37.3401C431.718 36.5341 431.735 36.5149 429.805 36.4849C428.718 36.4696 427.657 36.7016 427.447 37.0039ZM450.647 37.317C453.781 38.3933 455.831 38.3929 453.517 37.318C452.543 36.8661 451.011 36.5129 450.115 36.5344C448.591 36.5721 448.626 36.6239 450.647 37.317ZM418.781 39.072C417.421 39.5525 416.167 40.1099 415.996 40.3108C415.825 40.5117 415.059 40.8495 414.294 41.059C413.526 41.2703 412.899 41.6506 412.899 41.9035C412.898 42.1583 414.29 41.7736 415.992 41.0503C417.692 40.3251 419.333 39.7339 419.635 39.7344C419.938 39.735 421.123 39.3748 422.269 38.9361C425.328 37.7648 422.132 37.8878 418.781 39.072ZM458.378 39.0429C470.985 43.3061 486.65 54.3052 501.23 69.1268C502.365 70.2821 503.416 71.1192 503.565 70.9873C504.389 70.2587 481.931 50.2622 480.285 50.2595C479.965 50.2589 479.706 50.0305 479.706 49.7546C479.707 49.4768 478.803 48.7472 477.697 48.1303C476.592 47.5134 474.995 46.4416 474.145 45.7485C473.295 45.0535 471.488 43.9909 470.127 43.3851C468.767 42.7793 467.515 42.1392 467.345 41.9645C467.023 41.6325 462.739 39.8301 459.742 38.7655C458.792 38.4286 457.539 38.164 456.96 38.1783C456.38 38.1927 457.019 38.5827 458.378 39.0429ZM409.804 43.2835C409.38 43.7349 408.649 44.1035 408.18 44.1027C407.711 44.1019 407.326 44.3312 407.326 44.6128C407.325 44.8945 406.838 45.2673 406.242 45.4387C405.647 45.612 404.291 46.4298 403.233 47.2538C402.173 48.0797 400.36 49.4312 399.204 50.257C394.358 53.7244 386.88 60 382.543 64.2404C379.989 66.7402 377.06 69.5939 376.039 70.5828C371.472 75.0048 355.272 94.1295 355.271 95.1028C355.27 95.5952 354.778 96.2132 352.982 97.994C352.575 98.3975 351.36 100.177 350.283 101.948C349.204 103.72 347.989 105.54 347.579 105.992C347.17 106.443 346.293 107.8 345.627 109.006C344.96 110.212 344.277 111.324 344.106 111.475C343.565 111.959 341.067 116.02 339.387 119.144C338.494 120.802 337.515 122.529 337.209 122.98C336.904 123.434 336.466 124.173 336.236 124.624C336.008 125.078 335.647 125.57 335.433 125.721C335.221 125.872 334.41 127.352 333.631 129.01C332.855 130.667 331.125 134.006 329.786 136.429C328.446 138.853 327.351 141.137 327.35 141.508C327.35 141.878 327.089 142.608 326.771 143.132C325.278 145.593 322.383 151.358 322.383 151.875C322.382 152.193 321.966 153.162 321.456 154.025C320.947 154.888 320.541 156.089 320.555 156.692C320.571 157.363 320.963 156.938 321.568 155.596C324.858 148.277 330.234 137.07 331.69 134.492C332.627 132.834 333.756 130.615 334.199 129.558C334.644 128.504 335.225 127.382 335.493 127.066C335.761 126.75 337.636 123.669 339.658 120.216C345.994 109.397 349.423 104.188 356.406 94.7617C359.18 91.015 369.353 78.5956 370.09 78.0527C370.296 77.9017 372.121 75.9294 374.145 73.67C382.021 64.8813 401.584 48.5711 409.494 44.1969C411.196 43.2552 412.135 42.4808 411.582 42.4741C411.029 42.4674 410.228 42.8301 409.804 43.2835ZM507.319 75.6762C509.286 77.8676 511.048 79.7846 511.236 79.9344C512.011 80.5622 517.249 86.8937 517.901 87.9946C518.291 88.6524 519.005 89.5407 519.491 89.9707C520.766 91.1071 532.967 108.551 535.268 112.531C535.763 113.39 536.255 113.868 536.359 113.594C536.541 113.108 533.036 106.852 532.275 106.303C531.631 105.842 530.366 103.914 529.662 102.321C529.296 101.491 528.744 100.811 528.438 100.811C528.131 100.81 527.878 100.599 527.879 100.343C527.88 99.806 523.036 93.0748 520.948 90.7108C520.176 89.8377 519.436 88.8497 519.301 88.5142C518.935 87.5978 513.567 81.3389 512.967 81.1271C512.68 81.0251 512.445 80.6051 512.446 80.1931C512.446 79.7812 512.093 79.2461 511.657 79.0039C511.223 78.7618 509.903 77.4509 508.723 76.0924C505.488 72.3643 504.808 71.6964 504.253 71.6954C503.974 71.695 505.354 73.4868 507.319 75.6762ZM537.031 115.253C537.397 115.644 538.837 118.019 540.228 120.529C541.62 123.039 542.902 124.965 543.076 124.812C543.249 124.659 543.118 124.076 542.782 123.518C542.446 122.96 541.549 121.391 540.791 120.032C538.025 115.082 537.652 114.541 537.014 114.54C536.571 114.539 536.575 114.765 537.031 115.253ZM543.324 125.866C543.362 126.84 545.157 128.554 545.158 127.619C545.159 127.145 544.741 126.449 544.232 126.073C543.722 125.696 543.314 125.604 543.324 125.866ZM545.156 128.962C545.156 129.115 545.56 130.072 546.055 131.088C546.917 132.856 546.958 132.873 546.982 131.494C546.996 130.701 546.591 129.744 546.082 129.367C545.573 128.991 545.156 128.808 545.156 128.962ZM549.196 137.039C550.348 139.144 551.477 141.554 551.704 142.392C551.934 143.23 552.526 144.409 553.024 145.013L553.928 146.113L553.604 145.014C552.572 141.545 548.366 133.211 547.642 133.21C547.346 133.209 548.046 134.933 549.196 137.039ZM553.787 146.601C553.786 146.793 554.062 147.38 554.4 147.903C554.739 148.429 556.173 151.573 557.587 154.894C559.001 158.213 560.282 160.601 560.434 160.198C560.586 159.798 560.401 159.194 560.024 158.857C559.644 158.521 559.334 157.863 559.333 157.395C559.331 156.928 558.916 155.837 558.41 154.972C557.903 154.107 557.488 152.982 557.489 152.47C557.49 151.959 557.083 151.059 556.585 150.474C556.085 149.887 555.669 149.005 555.659 148.515C555.643 147.696 553.788 145.802 553.787 146.601ZM318.737 159.843C318.405 160.823 317.554 162.977 316.842 164.632C316.133 166.286 315.572 168.138 315.599 168.745C315.641 169.755 318.268 163.864 319.081 160.932C319.27 160.25 319.671 159.557 319.969 159.393C320.698 158.996 320.669 158.063 319.928 158.061C319.604 158.061 319.067 158.863 318.737 159.843ZM560.587 161.63C560.576 162.011 560.83 162.751 561.149 163.277C561.47 163.8 562.307 165.835 563.008 167.798C564.18 171.074 564.255 171.164 563.937 168.897C563.745 167.538 563.326 166.193 563.002 165.905C562.681 165.619 562.419 164.861 562.42 164.225C562.422 162.991 560.622 160.442 560.587 161.63ZM314.461 171.207C314.036 171.808 313.689 172.735 313.69 173.267C313.691 173.917 314.003 173.71 314.636 172.637C315.739 170.769 315.596 169.6 314.461 171.207ZM565.06 173.265C565.439 174.161 565.864 174.79 566.006 174.664C566.448 174.274 565.506 171.642 564.922 171.641C564.62 171.64 564.679 172.372 565.06 173.265ZM312.494 175.522C312.125 176.131 311.823 177.11 311.822 177.7C311.821 178.288 311.402 179.475 310.893 180.34C310.384 181.203 309.964 182.697 309.961 183.659C309.957 184.623 309.698 185.55 309.389 185.72C309.077 185.888 308.632 187.012 308.401 188.214C308.17 189.419 307.725 190.541 307.416 190.711C306.121 191.418 307.942 198.089 309.433 198.091C309.707 198.092 309.931 198.464 309.93 198.918C309.929 199.88 311.241 202.076 314.43 206.44C315.689 208.162 316.719 209.718 316.719 209.896C316.718 210.31 322.083 216.762 326.597 221.775C331.045 226.714 340.747 235.643 349.218 242.595L352.233 245.068L343.263 245.434C338.327 245.635 333.175 246.047 331.815 246.352C329.513 246.865 329.602 246.886 333.051 246.651C335.093 246.512 339.687 246.273 343.262 246.12C346.834 245.967 350.698 245.715 351.845 245.556L353.933 245.27L350.612 242.712C333.354 229.411 317.532 211.955 309.993 197.889L307.382 193.02L308.893 188.836C309.724 186.534 310.893 183.049 311.49 181.088C312.088 179.129 312.874 176.97 313.234 176.292C314.066 174.732 313.395 174.033 312.494 175.522ZM566.126 175.511C566.197 176.739 569.117 184.232 569.151 183.272C569.201 181.829 567.44 176.575 566.642 175.786C566.351 175.498 566.12 175.375 566.126 175.511ZM569.21 185.437C569.198 185.931 569.603 187.043 570.109 187.908C570.846 189.164 571.027 189.26 571.014 188.383C570.994 186.994 569.245 184.136 569.21 185.437ZM571.055 190.879C571.043 191.347 571.338 192.001 571.709 192.331C572.197 192.765 572.183 193.263 571.657 194.132C570.833 195.491 571.4 196.471 572.29 195.227C573.141 194.039 573.012 192.306 571.984 191.096C571.263 190.249 571.073 190.205 571.055 190.879ZM569.896 197.482C569.448 198.117 569.201 198.741 569.345 198.87C569.772 199.252 571.16 197.524 570.928 196.899C570.81 196.585 570.347 196.847 569.896 197.482ZM568.596 199.932C568.567 200.252 567.577 201.934 566.392 203.672C565.207 205.41 564.554 206.738 564.939 206.624C565.981 206.319 569.322 200.849 568.959 200.046C568.786 199.664 568.622 199.612 568.596 199.932ZM562.657 209.096C561.072 211.488 555.715 218.08 553.388 220.503C545.539 228.681 538.728 234.957 531.198 240.949C524.748 246.085 524.604 245.81 534.024 246.29C538.166 246.5 543.503 246.806 545.884 246.971C549.844 247.246 549.976 247.223 547.432 246.705C545.9 246.394 540.821 246.003 536.141 245.836C526.234 245.484 526.406 245.666 531.891 241.359C536.667 237.609 544.985 230.391 544.986 229.996C544.986 229.854 545.897 228.942 547.014 227.968C548.128 226.995 550.15 224.981 551.507 223.493C552.862 222.004 554.607 220.176 555.382 219.428C556.157 218.678 557.404 217.186 558.151 216.108C558.901 215.029 560.007 213.672 560.611 213.089C561.86 211.89 564.371 207.815 564.043 207.523C563.924 207.418 563.301 208.125 562.657 209.096ZM323.151 247.489C322.707 248.122 324.319 248.125 326.554 247.494C327.944 247.102 327.868 247.052 325.818 246.999C324.563 246.966 323.361 247.186 323.151 247.489ZM553.307 247.89C554.326 248.192 556.832 248.681 558.874 248.978C562.52 249.507 569.128 250.744 572.171 251.466C573.66 251.819 573.673 251.8 572.518 250.967C571.858 250.49 570.519 250.099 569.54 250.098C568.561 250.096 567.243 249.846 566.608 249.545C565.587 249.058 562.833 248.642 553.925 247.625C551.625 247.36 551.581 247.379 553.307 247.89ZM313.868 248.814C312.166 249.206 309.739 249.689 308.475 249.886C307.21 250.085 305.982 250.521 305.746 250.858C305.452 251.279 305.782 251.355 306.807 251.094C308.473 250.671 318.587 248.757 320.984 248.408C321.836 248.285 321.278 248.166 319.746 248.142C318.216 248.118 315.569 248.42 313.868 248.814ZM300.906 252.132C299.366 253.16 300.444 253.164 303.119 252.139C305.015 251.413 305.062 251.34 303.656 251.334C302.804 251.33 301.568 251.688 300.906 252.132ZM576.107 252.58C578.378 253.636 579.569 253.647 578.01 252.599C577.35 252.153 576.255 251.783 575.574 251.775C574.585 251.761 574.69 251.923 576.107 252.58ZM296.578 253.418C296.391 253.686 295.47 254.069 294.53 254.271C291.852 254.843 288.178 256.368 288.177 256.906C288.177 257.176 288.386 257.303 288.641 257.19C291.24 256.038 295.236 254.569 295.813 254.555C297.416 254.513 299.781 252.975 298.275 252.951C297.529 252.94 296.766 253.15 296.578 253.418ZM581.363 254.254C582.508 254.697 583.706 255.059 584.026 255.059C585.318 255.062 598.094 261.126 601.23 263.225C602.421 264.023 603.949 265.05 604.629 265.507C605.926 266.383 613.4 273.077 614.584 274.422C614.962 274.852 616.56 276.761 618.134 278.664C619.708 280.567 620.998 281.886 620.998 281.596C621 280.909 618.063 277.053 615.906 274.911C614.972 273.982 614.206 273.074 614.206 272.89C614.208 271.658 600.38 261.122 598.757 261.119C598.418 261.119 598.141 260.931 598.142 260.703C598.142 260.475 596.681 259.7 594.895 258.982C593.111 258.263 591.233 257.371 590.724 256.998C589.575 256.157 581.447 253.402 580.198 253.428C579.694 253.439 580.219 253.811 581.363 254.254ZM285.083 258.121C284.659 258.573 283.926 258.943 283.452 258.942C279.563 258.936 257.825 277.917 257.82 281.324C257.819 281.613 257.605 281.931 257.343 282.03C256.55 282.333 252.859 287.734 252.877 288.562C252.889 289.043 253.15 288.92 253.564 288.241C254.344 286.96 262.314 276.317 262.794 275.914C262.974 275.763 264.091 274.533 265.275 273.18C268.596 269.388 280.064 260.583 281.68 260.585C281.848 260.586 283.312 259.852 284.928 258.955C286.546 258.059 287.416 257.319 286.86 257.312C286.307 257.305 285.507 257.67 285.083 258.121ZM621.827 283.556C622.39 284.109 622.849 284.851 622.848 285.204C622.848 285.558 623.061 285.846 623.325 285.846C623.588 285.847 624.339 286.775 624.992 287.907C625.647 289.04 626.535 290.348 626.968 290.817C627.4 291.285 628.803 293.308 630.083 295.315C631.365 297.321 633.645 300.881 635.15 303.227C636.712 305.663 638.008 307.159 638.176 306.721C638.336 306.298 638.147 305.857 637.756 305.739C637.365 305.623 637.041 305.24 637.04 304.887C637.036 304.537 635.877 302.642 634.46 300.677C633.044 298.715 631.098 295.748 630.135 294.087C629.172 292.426 628.042 290.82 627.624 290.517C627.205 290.215 626.312 288.978 625.64 287.772C624.029 284.872 622.146 282.553 621.403 282.551C621.075 282.551 621.264 283.003 621.827 283.556ZM250.682 290.665C248.129 295.066 246.924 297.047 246.658 297.282C246.121 297.754 244.817 299.699 244.212 300.928C243.894 301.577 243.335 302.27 242.974 302.466C242.613 302.663 242.316 303.304 242.315 303.889C242.314 304.475 242.053 304.954 241.736 304.953C241.418 304.952 240.968 305.507 240.733 306.185C240.499 306.865 239.948 307.789 239.511 308.241C238.098 309.702 235.406 314.315 235.626 314.9C235.742 315.213 236.242 314.769 236.736 313.911C237.228 313.054 238.22 311.49 238.937 310.436C239.656 309.379 241.084 307.161 242.111 305.504C246.557 298.326 251.875 290.401 252.494 290.03C252.922 289.774 252.827 289.625 252.231 289.618C251.717 289.613 251.018 290.084 250.682 290.665ZM638.277 308.043C638.277 308.24 638.68 308.95 639.169 309.619C640.335 311.206 643.899 317.044 646.437 321.526C647.717 323.785 648.526 324.723 648.661 324.108C648.776 323.576 648.536 322.781 648.121 322.339C647.118 321.263 644.841 317.584 642.788 313.722C641.864 311.984 640.887 310.563 640.619 310.563C640.349 310.562 640.129 310.223 640.13 309.807C640.131 309.391 639.715 308.743 639.206 308.366C638.694 307.99 638.277 307.844 638.277 308.043ZM233.897 317.146C233.659 317.824 233.277 318.504 233.05 318.653C232.823 318.804 231.542 320.9 230.203 323.312C228.863 325.723 227.617 327.819 227.436 327.97C227.254 328.121 226.578 329.232 225.932 330.436C225.288 331.642 224.54 332.999 224.272 333.45C221.026 338.904 218.121 344.361 218.128 344.993C218.134 345.428 220.453 341.715 223.281 336.74C229.412 325.956 234.166 318.03 234.932 317.313C235.655 316.636 235.643 315.916 234.913 315.914C234.595 315.914 234.138 316.469 233.897 317.146ZM648.766 325.691C648.766 325.839 649.419 326.88 650.216 328.008C651.014 329.134 654.896 335.864 658.841 342.962C662.788 350.057 666.022 355.47 666.029 354.987C666.034 354.504 665.32 352.897 664.438 351.418C663.557 349.938 662.469 348.11 662.021 347.354C661.57 346.599 660.211 344.129 658.998 341.864C657.786 339.599 656.252 336.88 655.586 335.823C654.922 334.766 653.811 332.743 653.117 331.326C652.424 329.911 651.579 328.599 651.238 328.41C650.897 328.224 650.619 327.618 650.62 327.064C650.621 326.511 650.203 325.914 649.693 325.741C649.183 325.566 648.766 325.544 648.766 325.691ZM216.47 346.903C215.913 348.187 216.513 348.34 217.369 347.128C217.847 346.451 217.889 346.058 217.483 346.058C217.128 346.057 216.672 346.437 216.47 346.903ZM215.128 349.464C214.726 349.82 214.394 350.313 214.394 350.561C214.393 350.81 213.249 353.12 211.851 355.697C210.45 358.273 209.431 360.492 209.586 360.63C209.839 360.855 211.23 358.507 214.943 351.581C216.304 349.044 216.364 348.372 215.128 349.464ZM666.057 356.483C666.094 357.457 667.889 359.169 667.891 358.234C667.892 357.76 667.473 357.066 666.964 356.69C666.455 356.313 666.047 356.221 666.057 356.483ZM669.562 362.865C671.33 366.568 672.821 368.843 672.823 367.837C672.823 367.492 672.419 366.512 671.923 365.657C671.426 364.802 670.54 363.053 669.953 361.768C669.367 360.485 668.671 359.434 668.405 359.434C668.139 359.433 668.66 360.979 669.562 362.865ZM207.89 362.994C207.484 364.624 205.665 368.06 204.585 369.238C204.251 369.602 203.534 371.068 202.989 372.496C202.444 373.925 201.735 375.527 201.414 376.059C201.093 376.59 200.671 377.395 200.478 377.847C200.285 378.299 199.875 379.04 199.569 379.492C198.95 380.408 197.619 383.033 196.098 386.343C195.545 387.549 194.826 388.964 194.501 389.486C194.176 390.011 193.911 390.744 193.91 391.118C193.908 392.277 195.527 389.781 196.902 386.505C197.624 384.784 199.342 381.302 200.718 378.769C202.092 376.237 203.22 374.007 203.22 373.817C203.22 373.625 204.616 370.951 206.322 367.875C209.549 362.056 209.805 361.405 208.857 361.403C208.544 361.403 208.11 362.119 207.89 362.994ZM672.84 369.113C672.88 370.085 674.672 371.799 674.674 370.864C674.675 370.39 674.259 369.694 673.749 369.318C673.24 368.941 672.83 368.849 672.84 369.113ZM674.671 372.442C674.671 372.724 675.314 374.175 676.098 375.665C676.885 377.157 678.336 379.93 679.327 381.831C680.318 383.731 681.234 385.009 681.362 384.668C681.616 384 679.596 380.143 678.836 379.841C678.581 379.741 678.372 379.231 678.373 378.712C678.374 378.191 677.967 377.286 677.469 376.699C676.971 376.111 676.553 375.107 676.543 374.465C676.534 373.823 676.109 372.989 675.6 372.612C675.091 372.236 674.672 372.159 674.671 372.442ZM318.567 382.461C317.463 383.537 317.449 384.312 318.187 402.62C318.611 413.091 319.183 433.756 319.458 448.542C319.734 463.326 320.223 479.498 320.543 484.476C320.863 489.456 321.134 497.787 321.143 502.993L321.157 512.456L440.185 512.656L559.213 512.857L559.587 511.623C559.791 510.946 560.263 500.269 560.634 487.898C561.003 475.529 561.434 464.419 561.592 463.212C561.747 462.007 562.174 451.392 562.537 439.624C562.9 427.859 563.48 415.887 563.824 413.02C564.992 403.287 564.716 383.722 563.394 382.659C562.351 381.818 552.969 381.733 440.99 381.544L319.714 381.34L318.567 382.461ZM681.474 386.138C681.463 386.481 681.867 387.468 682.376 388.333C683.145 389.649 683.298 389.722 683.302 388.777C683.308 387.614 681.511 385.021 681.474 386.138ZM683.323 390.524C683.362 391.498 685.155 393.212 685.157 392.277C685.157 391.804 684.742 391.107 684.23 390.731C683.721 390.355 683.312 390.262 683.323 390.524ZM192.782 392.765C192.379 393.121 192.041 393.92 192.029 394.538C192.017 395.155 191.596 396.141 191.096 396.725C190.596 397.31 190.186 398.155 190.185 398.601C190.184 399.302 187.552 404.685 185.797 407.576C185.478 408.1 185.234 409.086 185.257 409.77C185.277 410.464 186.168 409.076 187.274 406.626C188.363 404.214 189.454 401.968 189.696 401.637C190.385 400.699 193.91 392.467 193.701 392.282C193.599 392.192 193.186 392.408 192.782 392.765ZM685.449 394.437C685.684 394.964 686.448 396.755 687.145 398.417C688.669 402.041 690.087 404.099 690.09 402.691C690.09 402.189 689.845 401.642 689.545 401.477C689.245 401.312 688.362 399.444 687.581 397.328C686.803 395.209 685.909 393.477 685.593 393.477C685.28 393.476 685.214 393.907 685.449 394.437ZM690.106 404.501C690.094 404.978 690.286 405.55 690.532 405.769C690.78 405.989 691.592 407.573 692.339 409.293C693.086 411.011 693.715 411.922 693.74 411.319C693.762 410.715 693.367 409.515 692.858 408.65C692.352 407.783 691.939 406.783 691.939 406.42C691.941 405.334 690.131 403.44 690.106 404.501ZM184.127 412.368C182.998 413.963 183.176 415.038 184.328 413.585C184.865 412.908 185.214 412.112 185.102 411.814C184.99 411.517 184.551 411.766 184.127 412.368ZM693.821 413.036C693.906 414.114 696.767 418.932 696.816 418.078C696.845 417.566 696.591 416.997 696.252 416.81C695.911 416.622 695.634 415.897 695.635 415.198C695.636 414.499 695.22 413.618 694.711 413.24C694.202 412.864 693.8 412.771 693.821 413.036ZM181.716 417.141C181.486 417.949 180.924 419.245 180.467 420.018C180.009 420.792 179.634 421.966 179.63 422.627C179.627 423.288 179.367 423.969 179.053 424.141C178.737 424.313 178.284 425.243 178.042 426.211C177.583 428.051 177.386 428.495 175.693 431.476C175.126 432.479 174.657 433.744 174.656 434.286C174.655 434.829 174.236 436.158 173.724 437.239C173.212 438.323 172.81 439.771 172.833 440.46C172.855 441.148 173.436 440.109 174.124 438.148C174.813 436.187 176.316 432.364 177.466 429.651C178.616 426.936 180.165 423.112 180.91 421.154C181.654 419.193 182.507 417.355 182.805 417.07C183.528 416.378 183.497 415.671 182.743 415.669C182.41 415.669 181.949 416.331 181.716 417.141ZM696.907 419.553C696.906 420.128 698.663 424.605 699.815 426.965C700.386 428.137 700.488 428.177 700.504 427.24C700.514 426.637 700.127 425.525 699.642 424.769C699.157 424.015 698.751 422.888 698.739 422.267C698.729 421.647 698.311 420.657 697.813 420.072C697.315 419.485 696.905 419.252 696.907 419.553ZM700.561 429.599C700.56 429.84 700.808 430.274 701.11 430.56C701.412 430.848 702.269 432.811 703.017 434.924C704.886 440.213 705.394 441.27 705.451 439.969C705.498 438.888 703.73 433.618 703.021 432.73C702.78 432.429 702.401 431.501 702.18 430.671C701.819 429.323 700.563 428.492 700.561 429.599ZM705.495 441.86C705.492 442.354 705.903 443.466 706.409 444.331C706.959 445.265 707.334 445.54 707.337 445.007C707.34 444.513 706.927 443.401 706.421 442.536C705.874 441.602 705.498 441.327 705.495 441.86ZM171.209 443.747C170.967 444.718 170.537 445.89 170.253 446.352C169.411 447.728 167.815 453.293 167.865 454.68C167.923 456.23 167.91 456.259 170.026 449.388C170.956 446.372 171.956 443.67 172.251 443.383C172.952 442.702 172.936 441.986 172.218 441.985C171.905 441.984 171.45 442.778 171.209 443.747ZM707.651 447.276C708.072 448.712 709.531 453.52 710.397 456.332L710.904 457.978L710.97 456.178C711.008 455.189 710.62 453.491 710.112 452.407C709.604 451.322 709.189 449.896 709.19 449.237C709.192 448.576 708.755 447.556 708.22 446.971C707.284 445.942 707.262 445.953 707.651 447.276ZM166.678 457.713C166.279 458.371 165.955 459.358 165.956 459.906C165.957 460.605 166.239 460.425 166.902 459.302C167.422 458.423 167.745 457.437 167.625 457.111C167.502 456.785 167.076 457.056 166.678 457.713ZM711.06 458.253C711.053 458.404 711.448 459.516 711.937 460.724C712.673 462.543 712.83 462.678 712.854 461.515C712.87 460.745 712.477 459.633 711.977 459.046C711.478 458.458 711.066 458.103 711.06 458.253ZM164.406 464.327C164.21 465.459 163.76 467.182 163.408 468.157C163.056 469.134 162.516 471.601 162.208 473.641C161.9 475.682 161.35 478.956 160.988 480.915C158.759 492.996 158.65 495.231 159.995 500.995C161.241 506.337 165.188 512.193 167.543 512.197C168.003 512.198 167.469 511.484 166.353 510.61C165.235 509.737 163.49 507.697 162.471 506.078L160.62 503.134L160.673 493.533C160.71 486.923 161.039 482.651 161.724 479.821C162.273 477.559 163.218 473.24 163.826 470.223C164.432 467.207 165.158 464.504 165.437 464.219C166.132 463.508 166.082 462.272 165.358 462.271C165.032 462.27 164.605 463.197 164.406 464.327ZM712.921 463.847C713.024 465.586 714.021 466.835 714.069 465.286C714.094 464.473 713.836 463.657 713.497 463.468C713.158 463.282 712.898 463.452 712.921 463.847ZM714.196 467.859C714.191 468.462 714.559 470.438 715.016 472.25L715.847 475.543L715.857 473.073C715.862 471.717 715.491 469.741 715.035 468.684C714.506 467.459 714.201 467.16 714.196 467.859ZM716.225 478.285C716.376 479.492 716.755 481.591 717.068 482.95L717.637 485.421L717.707 483.225C717.746 482.018 717.367 479.919 716.866 478.562L715.952 476.091L716.225 478.285ZM717.951 495.239C717.966 499.057 718.203 501.868 718.48 501.484C719.158 500.54 719.142 490.008 718.462 489.053C718.139 488.598 717.934 491.079 717.951 495.239ZM716.273 506.191C715.627 507.581 713.966 509.707 712.585 510.916C711.146 512.176 710.457 513.111 710.971 513.112C712.67 513.115 718.002 506.139 717.618 504.415C717.525 504.001 716.921 504.799 716.273 506.191ZM99.9987 513.102C99.5841 514.253 100.162 515.996 101.157 516.603C102.245 517.266 775.776 518.253 777.173 517.594C779.027 516.718 778.875 513.204 776.984 513.287C775.936 513.333 775.86 513.411 776.674 513.602C777.813 513.867 778.196 516.211 777.192 516.759C775.899 517.464 101.295 515.952 100.788 515.242C100.003 514.143 100.197 513.277 101.363 512.677C102.351 512.169 102.356 512.12 101.405 512.103C100.834 512.092 100.201 512.543 99.9987 513.102Z" fill="#7B7F83"/>
<path id="path4" fill-rule="evenodd" clip-rule="evenodd" d="M428.684 37.3433C426.981 37.7906 424.056 38.554 422.184 39.0413C409.827 42.2528 388.569 57.5753 374.145 73.67C372.121 75.9294 370.296 77.9017 370.09 78.0527C369.352 78.5956 359.18 91.015 356.406 94.7618C349.423 104.188 345.994 109.398 339.658 120.216C337.636 123.669 335.755 126.75 335.478 127.066C335.198 127.382 334.455 128.873 333.823 130.382C333.192 131.889 332.193 133.862 331.601 134.766C330.366 136.66 324.31 149.272 322.041 154.677C321.197 156.69 320.262 158.83 319.965 159.433C318.746 161.905 317.436 165.087 316.465 167.93C315.9 169.589 315.043 171.723 314.56 172.673C314.079 173.624 313.684 174.676 313.683 175.011C313.682 175.346 313.428 176.049 313.118 176.573C312.811 177.096 312.073 179.129 311.482 181.088C310.888 183.049 309.724 186.534 308.893 188.836L307.382 193.02L309.993 197.889C317.51 211.915 335.707 231.912 351.169 243.137C354.417 245.495 353.878 245.801 346.386 245.844C335.695 245.904 314.347 248.966 304.273 251.883C293.731 254.936 290.008 256.352 282.512 260.156C276.868 263.018 268.904 269.036 265.275 273.18C264.091 274.533 262.974 275.763 262.794 275.914C262.026 276.56 254.79 286.256 253.785 287.988C253.18 289.032 252.489 290.009 252.254 290.158C251.819 290.436 245.534 299.955 242.126 305.504C241.105 307.161 240.061 308.763 239.804 309.065C239.546 309.366 238.083 311.708 236.554 314.271C235.024 316.832 232.495 321.026 230.931 323.587C228.17 328.11 214.828 351.751 211.288 358.39C210.324 360.199 208.115 364.335 206.377 367.584C204.64 370.83 203.22 373.641 203.22 373.827C203.22 374.012 202.092 376.237 200.718 378.769C199.342 381.302 197.629 384.784 196.911 386.505C196.19 388.225 195.373 389.892 195.094 390.208C194.812 390.525 193.58 393.102 192.355 395.938C191.129 398.771 189.908 401.348 189.644 401.666C189.378 401.981 188.239 404.461 187.113 407.174C185.989 409.889 184.703 412.848 184.256 413.752C182.337 417.631 181.552 419.394 180.588 421.975C180.024 423.484 178.622 426.936 177.468 429.651C176.316 432.364 174.747 436.434 173.983 438.696C173.221 440.957 172.359 443.178 172.071 443.63C171.434 444.633 168.69 453.12 168.078 455.983C167.837 457.125 167.259 458.699 166.798 459.48C166.336 460.261 165.956 461.53 165.952 462.3C165.949 463.069 165.716 463.932 165.437 464.219C165.158 464.504 164.431 467.207 163.826 470.223C163.218 473.24 162.273 477.559 161.724 479.821C161.039 482.651 160.71 486.923 160.673 493.533L160.62 503.134L162.471 506.078C163.49 507.697 165.235 509.737 166.353 510.61L168.381 512.198L135.528 512.143C99.6956 512.082 98.6043 512.18 100.788 515.242C101.295 515.952 775.899 517.464 777.192 516.759C778.358 516.123 777.785 513.909 776.366 513.569C775.601 513.386 760.365 513.207 742.511 513.173L710.047 513.111L712.425 511.069C717.674 506.563 719.671 494.939 717.162 483.498C716.798 481.838 716.247 478.933 715.939 477.039C714.947 470.928 713.142 463.843 711.363 459.077C710.911 457.869 710.249 455.893 709.89 454.685C708.596 450.339 706.522 444.239 706.063 443.434C705.804 442.979 705.127 441.127 704.559 439.316C703.171 434.882 701.703 431.195 701.076 430.56C700.793 430.274 700.561 429.693 700.561 429.271C700.562 428.848 700.182 427.724 699.714 426.773C699.245 425.822 698.379 423.807 697.79 422.298C695.374 416.123 690.963 406.137 688.697 401.711C687.847 400.049 686.945 398.074 686.693 397.318C686.216 395.89 683.089 389.514 682.05 387.855C681.723 387.33 681.454 386.666 681.454 386.379C681.455 386.09 680.195 383.432 678.655 380.469C677.113 377.506 675.629 374.588 675.356 373.984C675.082 373.38 674.003 371.28 672.961 369.316C671.916 367.355 669.904 363.525 668.489 360.806C665.006 354.113 652.053 330.918 647.64 323.467C641.91 313.793 636.256 304.664 633.863 301.226C632.917 299.866 631.41 297.518 630.514 296.007C629.615 294.498 628.281 292.52 627.546 291.615C626.811 290.707 625.668 289.04 625.007 287.907C624.345 286.775 623.588 285.847 623.325 285.846C623.061 285.846 622.848 285.604 622.848 285.307C622.849 284.782 618.552 279.025 615.44 275.383C613.698 273.342 606.511 266.779 604.629 265.507C603.949 265.05 602.421 264.023 601.23 263.225C599.151 261.835 594.76 259.607 588.867 256.951C587.337 256.262 584.277 255.169 582.065 254.522C579.856 253.874 577.568 253.113 576.986 252.831C575.219 251.975 565.488 249.924 558.647 248.966C556.482 248.662 554.441 248.265 554.115 248.087C553.325 247.652 544.069 246.819 534.327 246.306C524.554 245.791 524.733 246.096 531.198 240.949C538.728 234.957 545.539 228.681 553.388 220.503C561.49 212.065 573.362 193.799 571.705 192.325C571.336 191.997 571.035 191.261 571.036 190.688C571.037 190.115 570.656 188.867 570.189 187.916C569.722 186.965 568.728 184.087 567.981 181.521C567.233 178.956 565.971 175.373 565.176 173.561C564.38 171.751 563.272 168.909 562.711 167.249C562.149 165.587 561.452 163.735 561.162 163.131C560.871 162.527 559.358 159.068 557.802 155.446C556.243 151.822 554.31 147.621 553.504 146.112C552.697 144.603 551.844 142.776 551.61 142.055C550.638 139.066 539.117 118.09 536.155 113.916C535.336 112.761 534.666 111.7 534.666 111.559C534.667 111.302 527.53 100.848 522.865 94.272C521.492 92.3365 519.974 90.4026 519.491 89.9707C519.005 89.5407 518.291 88.6524 517.901 87.9946C517.248 86.8937 512.01 80.5622 511.236 79.9344C511.048 79.7846 509.243 77.8062 507.222 75.5401C501.556 69.1829 490.318 58.6837 483.091 52.9945C479.872 50.4581 470.742 44.2081 470.256 44.2073C470.048 44.207 468.289 43.3552 466.348 42.3135C463.084 40.5626 460.388 39.6805 451.213 37.3621C446.645 36.2086 433.049 36.1972 428.684 37.3433ZM449.779 38.0973C455.229 39.1526 457.784 39.839 461.561 41.2651C462.634 41.6711 463.667 42.0024 463.859 42.0027C464.453 42.0038 473.145 46.8236 474.457 47.8796C475.141 48.4307 477.085 49.8652 478.781 51.0712C483.374 54.3342 486.011 56.5324 492.911 62.8572C501.694 70.9075 502.177 71.372 504.489 74.0084C505.626 75.3017 506.877 76.6086 507.267 76.912C509.412 78.5671 525.306 98.6656 527.031 101.906C527.272 102.359 528.471 104.089 529.693 105.751C530.918 107.412 532.552 109.884 533.323 111.242C534.094 112.602 535.24 114.483 535.87 115.425C538.629 119.553 549.469 139.21 549.467 140.08C549.467 140.239 550.272 141.907 551.257 143.788C553.777 148.607 554.756 150.69 555.832 153.521C556.348 154.881 557.25 156.98 557.836 158.188C559.246 161.101 564.025 173.191 565.537 177.677C566.199 179.638 567.567 183.478 568.578 186.21C570.965 192.655 570.905 193.682 567.836 199.149C560.311 212.556 545.452 228.619 527.795 242.432C522.498 246.577 523.018 247.264 531.499 247.345C535.328 247.382 541.103 247.605 544.335 247.838C549.925 248.244 552.383 248.603 561.654 250.37C563.866 250.789 567.206 251.423 569.077 251.777C572.5 252.423 576.986 253.628 579.282 254.517C579.962 254.779 582.048 255.527 583.918 256.178C598.666 261.309 610.419 269.765 618.903 281.342C620.828 283.97 623.475 287.569 624.784 289.341C626.095 291.112 627.166 292.649 627.166 292.754C627.166 292.859 628.694 295.188 630.56 297.929C632.427 300.668 633.955 303.029 633.955 303.177C633.955 303.322 634.605 304.364 635.399 305.49C636.194 306.618 638.179 309.763 639.808 312.481C641.437 315.201 643.096 317.796 643.493 318.248C643.888 318.701 644.739 320.184 645.383 321.543C646.027 322.901 647.147 324.878 647.871 325.935C649.647 328.523 667.392 360.57 669.157 364.373C669.926 366.033 670.928 367.784 671.381 368.26C671.832 368.738 672.202 369.421 672.201 369.777C672.201 370.135 672.461 370.856 672.78 371.382C674.28 373.848 678.986 383.123 678.985 383.612C678.984 383.915 680.057 386.195 681.368 388.68C682.68 391.165 684.23 394.31 684.816 395.669C685.401 397.029 686.269 398.942 686.747 399.924C687.225 400.906 688.007 402.511 688.483 403.493C689.241 405.05 690.018 406.814 691.927 411.316C692.183 411.92 692.756 413.156 693.199 414.061C694.358 416.43 695.477 419.083 696.905 422.845C697.594 424.657 698.53 426.881 698.986 427.786C699.443 428.693 700.566 431.532 701.48 434.099C702.394 436.666 703.532 439.577 704.006 440.568C704.482 441.559 704.88 442.794 704.89 443.313C704.9 443.83 705.315 444.734 705.813 445.321C706.311 445.908 706.718 446.849 706.717 447.412C706.716 447.978 707.145 449.72 707.672 451.286C708.197 452.852 709.293 456.111 710.108 458.527C710.923 460.941 712.01 464.646 712.523 466.758C713.038 468.872 713.882 472.33 714.397 474.442C714.909 476.555 715.329 478.828 715.328 479.493C715.325 480.155 715.739 482.122 716.246 483.861C719.131 493.74 717.097 505.432 711.659 510.253C709.837 511.867 708.536 513.355 708.764 513.561C708.995 513.764 724.479 514.026 743.174 514.14C776.805 514.346 777.157 514.36 776.509 515.432C775.9 516.437 102.13 516.154 102.132 515.148C102.132 515.024 101.965 514.529 101.758 514.052C101.42 513.266 104.532 513.188 134.202 513.238C155.013 513.274 167.626 513.09 168.679 512.737L170.341 512.18L167.642 510.061C162.361 505.913 161.548 503.674 161.565 493.347C161.574 488.412 161.856 483.657 162.195 482.783C162.531 481.908 163.093 479.589 163.439 477.63C163.784 475.668 164.46 472.336 164.936 470.225C165.415 468.115 165.999 465.523 166.232 464.468C166.467 463.411 167.025 461.685 167.472 460.628C168.242 458.808 168.666 457.504 171.217 449.114C171.812 447.155 172.535 445.058 172.824 444.455C173.11 443.852 174.349 440.645 175.575 437.327C176.802 434.01 178.073 430.868 178.401 430.346C178.728 429.821 178.997 428.912 178.998 428.322C178.999 427.732 179.251 427.113 179.556 426.945C179.863 426.779 180.837 424.66 181.725 422.235C182.61 419.811 184.198 416.049 185.252 413.872C186.308 411.698 187.597 408.807 188.12 407.451C188.641 406.094 189.768 403.626 190.629 401.968C191.487 400.31 192.83 397.463 193.613 395.641C194.398 393.818 196.04 390.437 197.264 388.129C198.489 385.82 199.491 383.762 199.491 383.555C199.492 383.348 200.573 381.179 201.898 378.733C203.22 376.289 204.935 372.931 205.707 371.273C207.286 367.88 211.383 360.201 213.602 356.474C214.408 355.117 215.381 353.279 215.763 352.389C216.472 350.738 231.567 324.243 234.358 319.753C235.2 318.396 237.094 315.314 238.568 312.903C240.041 310.491 242.184 307.13 243.327 305.433C244.473 303.735 245.412 302.172 245.412 301.955C245.412 301.74 246.041 300.787 246.807 299.838C247.574 298.887 248.657 297.37 249.209 296.464C251.523 292.684 257.679 284.059 262.309 278.107C269.888 268.365 285.081 258.173 296.512 255.161C297.545 254.889 299.924 254.152 301.796 253.524C305.368 252.327 309.343 251.431 317.578 249.966C320.301 249.482 324.48 248.729 326.861 248.29C329.243 247.853 336.554 247.343 343.104 247.156C357.528 246.75 357.42 246.866 349.352 240.323C335.436 229.041 324.859 218.327 317.963 208.53C316.795 206.867 315.667 205.384 315.458 205.234C315.251 205.083 314.415 203.723 313.6 202.214C312.788 200.702 311.439 198.48 310.603 197.271C309.023 194.981 308.567 190.016 309.807 188.598C310.44 187.873 311.625 184.673 313.684 178.115C314.434 175.725 315.27 173.381 315.543 172.906C316.414 171.385 317.881 167.749 318.986 164.369C319.579 162.559 320.256 160.832 320.492 160.532C320.726 160.23 321.422 158.75 322.036 157.243C322.653 155.734 323.503 153.762 323.928 152.857C324.351 151.953 326.027 148.377 327.647 144.91C330.618 138.558 335.797 128.496 337.663 125.451C339.362 122.679 343.821 115.234 346.036 111.476C347.189 109.516 348.289 107.79 348.482 107.639C348.672 107.488 349.896 105.764 351.2 103.804C353.481 100.378 356.293 96.4572 357.293 95.3112C357.555 95.0089 359.798 92.1752 362.278 89.0103C364.757 85.8474 367.245 82.765 367.808 82.1624C370.367 79.4173 374.259 75.067 375.095 74.0108C376.676 72.0189 381.312 67.6526 389.543 60.4011C405.631 46.229 415.491 40.7889 429.919 38.1251C431.962 37.7473 433.911 37.3636 434.253 37.2703C436.283 36.72 445.077 37.1869 449.779 38.0973ZM423.223 157.197C421.01 157.45 416.415 157.89 413.014 158.176C401.605 159.134 392.813 160.399 382.379 162.585C379.031 163.286 367.34 166.202 366.179 166.623C364.737 167.149 364.646 167.483 363.735 175.613C361.587 194.784 369.278 211.448 388.425 229.113C395.148 235.315 395.404 236 394.765 246.025C394.287 253.504 394.264 253.462 401.133 257.434C407.725 261.248 420.773 267.393 422.339 267.423C422.895 267.433 423.886 267.805 424.546 268.248C425.207 268.692 426.332 269.058 427.052 269.059C427.769 269.06 428.62 269.29 428.941 269.57C431.28 271.597 444.152 271.667 450.256 269.685C456.912 267.523 462.72 265.425 464.805 264.429C473.094 260.463 475.073 259.44 478.375 257.412L482.038 255.162L482.107 245.708L482.175 236.255L487.003 232.335C507.959 215.313 517.946 196.08 515.939 176.607C514.906 166.594 515.27 167.075 507.354 165.246C503.781 164.422 501.181 163.795 494.675 162.19C489.675 160.957 476.436 159.093 466.84 158.272C463.437 157.981 458.433 157.494 455.722 157.19C449.884 156.535 428.959 156.54 423.223 157.197ZM456.631 158.587C468.746 159.354 473.544 159.887 486.013 161.851C493.656 163.056 496.583 163.628 500.548 164.696C502.419 165.201 505.341 165.934 507.041 166.326C512.257 167.528 513.471 168.126 513.98 169.754C514.827 172.459 514.513 191.863 513.579 194.595C508.726 208.783 498.056 222.632 483.305 233.895C479.995 236.424 479.555 239.791 480.783 253.219C480.881 254.288 480.262 254.946 477.811 256.371C476.109 257.363 474.62 258.42 474.508 258.718C474.393 259.019 473.876 259.263 473.359 259.262C472.841 259.262 471.262 259.941 469.85 260.772C468.437 261.605 465.194 263.115 462.64 264.128C460.086 265.143 457.731 266.183 457.407 266.443C457.084 266.701 456.291 266.913 455.647 266.912C455.001 266.911 453.734 267.25 452.83 267.664C446.029 270.779 433.816 270.768 425.82 267.641C412.035 262.251 407.457 260.102 400.213 255.614L395.838 252.903L395.853 243.603L395.869 234.305L389.847 228.823C382.685 222.302 383.278 222.895 379.81 218.783C376.636 215.019 375.67 213.688 375.119 212.328C374.904 211.801 374.483 211.367 374.183 211.367C373.883 211.366 373.637 211.076 373.637 210.724C373.638 210.369 373.261 209.691 372.804 209.213C372.344 208.737 371.08 206.37 369.995 203.954C368.91 201.538 367.784 199.067 367.493 198.463C365.187 193.675 364.813 191.218 364.854 181.178C364.907 168.861 365.976 166.356 371.177 166.381C372.078 166.384 375.382 165.548 380.211 164.095C382.252 163.479 384.833 163.005 393.208 161.704C416.737 158.054 434.477 157.181 456.631 158.587ZM317.59 381.403C316.125 382.698 316.126 388.337 317.612 436.47C317.927 446.729 318.451 463.887 318.777 474.6C319.233 489.673 320.231 511.774 320.504 512.866C320.65 513.455 560.585 513.317 560.996 512.727C561.258 512.352 561.69 504.887 561.956 496.133C562.223 487.381 562.736 470.347 563.1 458.279C563.461 446.209 564.045 432.017 564.395 426.737C565.673 407.438 565.966 383.249 564.935 382.027C564.017 380.935 563.193 380.926 441.462 380.581L318.914 380.233L317.59 381.403ZM563.394 382.659C564.716 383.722 564.992 403.287 563.824 413.02C563.48 415.887 562.9 427.859 562.537 439.624C562.174 451.392 561.747 462.007 561.592 463.212C561.434 464.419 561.003 475.529 560.634 487.898C560.263 500.269 559.791 510.946 559.587 511.623L559.213 512.857L440.185 512.656L321.157 512.456L321.143 502.993C321.134 497.787 320.863 489.456 320.543 484.476C320.223 479.498 319.734 463.326 319.458 448.542C319.183 433.756 318.61 413.091 318.187 402.62C317.449 384.312 317.463 383.537 318.567 382.461L319.714 381.34L440.99 381.544C552.969 381.733 562.351 381.818 563.394 382.659Z" fill="#9A999A"/>
</g>
<g id="coffee">
<path id="Vector" d="M157.292 436.591C156.483 436.59 155.682 436.734 154.94 437.015C154.198 437.296 153.532 437.707 152.982 438.222C152.433 438.738 152.013 439.347 151.749 440.01C151.484 440.674 151.382 441.378 151.447 442.078C157.386 466.542 159.977 489.866 157.915 511.606C158.041 512.874 158.708 514.057 159.786 514.922C160.865 515.786 162.276 516.271 163.744 516.28L201.524 516.343C202.992 516.339 204.405 515.86 205.486 514.999C206.567 514.138 207.238 512.957 207.368 511.689C204.353 489.753 207.62 466.342 214.071 442.184C214.138 441.484 214.038 440.779 213.776 440.115C213.514 439.45 213.096 438.84 212.548 438.323C212.001 437.805 211.335 437.392 210.594 437.109C209.854 436.825 209.053 436.679 208.244 436.677L157.292 436.591Z" fill="#2D5631"/>
<path id="Vector_2" d="M213.984 440.386L211.352 428.639C211.113 427.57 210.487 426.611 209.579 425.922C208.671 425.233 207.537 424.856 206.366 424.854L189.813 424.826C189.749 424.621 189.643 424.429 189.503 424.26L187.667 422.113C187.494 421.911 187.275 421.748 187.025 421.635C186.775 421.523 186.501 421.464 186.224 421.464L176.003 421.446C175.725 421.446 175.451 421.504 175.201 421.615C174.951 421.727 174.731 421.89 174.557 422.091L172.714 424.232C172.573 424.4 172.467 424.592 172.402 424.796L157.049 424.771C155.878 424.769 154.742 425.142 153.832 425.828C152.922 426.514 152.293 427.471 152.05 428.539L149.379 440.277C149.221 440.97 149.231 441.686 149.408 442.374C149.585 443.063 149.925 443.705 150.402 444.256C150.88 444.806 151.483 445.25 152.168 445.556C152.852 445.861 153.602 446.021 154.361 446.022C172.144 451.177 191.182 451.209 208.982 446.114C209.741 446.115 210.491 445.959 211.177 445.655C211.863 445.352 212.468 444.91 212.947 444.361C213.426 443.812 213.768 443.171 213.947 442.483C214.127 441.795 214.139 441.079 213.984 440.386V440.386Z" fill="#D4D3DF"/>
</g>
<g id="Group">
<path id="Vector_3" d="M515.912 203.589C515.763 200.621 515.176 196.88 512.754 196.546C506.181 195.642 510.881 214.977 499.478 219.235C489.604 222.921 495.925 225.047 464.463 209.832C451.193 203.413 448.577 206.755 443.644 207.209C440.786 207.472 437.996 206.631 435.191 206.175C428.323 205.058 423.71 209.284 418.105 211.253C415.434 212.191 412.485 212.719 409.807 213.649C405.715 215.069 404.437 217.781 400.974 219.631C397.729 221.365 394.271 223.316 389.98 223.482C377.163 223.979 369.654 207.815 369.081 199.096C368.576 191.416 353.617 196.448 368.758 232.265C373.805 244.205 403.245 263.973 418.506 270.866C429.58 275.868 439.64 278.678 452.852 275.912C469.102 272.51 478.121 263.422 488.008 254.838C508.926 236.676 516.945 224.155 515.912 203.589ZM459.824 234.483C460.344 233.346 461.447 233.971 456.67 231.999C438.189 224.374 434.508 228.846 426.635 231.842C424.473 232.665 425.313 233.188 425.153 234.603C424.825 237.49 415.569 234.731 413.991 233.756C410.588 231.653 413.287 226.499 414.936 224.262C422.687 213.742 434.075 214.251 443.031 213.889C454.911 213.409 460.341 215.265 467.517 224.224C475.839 234.613 458.604 237.149 459.824 234.483Z" fill="#221B15"/>
</g>
</g>
<defs>
<clipPath id="clip0_0_1">
<rect width="864.325" height="542.891" fill="white" transform="translate(0.914642) rotate(0.0965284)"/>
</clipPath>
</defs>
</svg>
